OpenSim_Sub04_CSStiffKnee_LCS.mot
version=1
nRows=32
nColumns=11
inDegrees=no
endheader
time	Bot_Shank	2nd_Bot_Shank	2nd_Top_Shank	Top_Shank	Bot_Thigh	Med_Thigh	Top_Thigh	BNOx	BNOy	BNOZ
0	10020.93210013	10399.03547715	10822.24505206	10830.32324668	12877.45534132	13993.13865192	14709.29126938	198.98771331	-77.49344721	148.53787046
0.01000000	10020.70576844	10399.03022926	10822.50606552	10830.61822280	12876.85480761	13992.03412137	14709.71285214	198.96725237	-77.48301674	148.50588150
0.02000000	10020.36263378	10398.96998950	10822.67897331	10830.77021048	12875.08316001	13991.05922728	14710.13066854	198.94437898	-77.47154490	148.47318404
0.03000000	10019.94197638	10398.86676626	10822.78229976	10830.83837923	12872.47448284	13990.19334775	14710.53336560	198.92021461	-77.45927242	148.43948152
0.04000000	10019.48307645	10398.73256796	10822.83456919	10830.88189854	12869.36286041	13989.41586090	14710.90959031	198.89588075	-77.44644005	148.40447738
0.05000000	10019.02521419	10398.57940301	10822.85430592	10830.95993793	12866.08237702	13988.70614486	14711.24798968	198.87249886	-77.43328853	148.36787504
0.06000000	10018.60766982	10398.41927980	10822.86003428	10831.13166690	12862.96711700	13988.04357773	14711.53721072	198.85119042	-77.42005859	148.32937794
0.07000000	10018.26972356	10398.26420674	10822.87027857	10831.45625496	12860.35116465	13987.40753765	14711.76590044	198.83307691	-77.40699098	148.28868951
0.08000000	10018.05065561	10398.12619225	10822.90356313	10831.99287161	12858.56860429	13986.77740272	14711.92270584	198.81927982	-77.39432643	148.24551319
0.09000000	10017.98974620	10398.01724473	10822.97841228	10832.80068636	12857.95352024	13986.13255106	14711.99627392	198.81092061	-77.38230570	148.19955239
0.10000000	10018.11780388	10397.94761333	10823.11078909	10833.92556106	12858.78587540	13985.45960600	14711.97632113	198.80890879	-77.37114131	148.15064418
0.11000000	10018.40302639	10397.91454528	10823.29772747	10835.31500562	12860.94564184	13984.79873740	14711.86046764	198.81258726	-77.36083730	148.09961308
0.12000000	10018.78554914	10397.90946028	10823.52777720	10836.87244835	12864.13351447	13984.21411487	14711.64987608	198.82059676	-77.35130424	148.04772621
0.13000000	10019.20537514	10397.92375055	10823.78944806	10838.50110962	12868.04934259	13983.77002119	14711.34572584	198.83157473	-77.34245230	147.99625280
0.14000000	10019.60250743	10397.94880830	10824.07124981	10840.10420978	12872.39297550	13983.53073917	14710.94919626	198.84415858	-77.33419161	147.94646204
0.15000000	10019.91694903	10397.97602577	10824.36169222	10841.58496921	12876.86426249	13983.56055161	14710.46146672	198.85698577	-77.32643232	147.89962317
0.16000000	10020.08870296	10397.99679516	10824.64928508	10842.84660828	12881.16305284	13983.92374131	14709.88371656	198.86869370	-77.31908457	147.85700538
0.17000000	10020.05777226	10398.00250869	10824.92253813	10843.79234734	12884.98919586	13984.68459108	14709.21712515	198.87791982	-77.31205852	147.81987789
0.18000000	10019.77251672	10397.98560234	10825.17104140	10844.33481776	12888.06287317	13985.89919531	14708.46523590	198.88343375	-77.30529446	147.78949744
0.19000000	10019.26756825	10397.94928728	10825.39553687	10844.48380638	12890.31416981	13987.53911455	14707.65599776	198.88536981	-77.29904397	147.76699193
0.20000000	10018.62845467	10397.90313149	10825.60334558	10844.30641655	12891.79700251	13989.52603887	14706.83175759	198.88466744	-77.29374230	147.75341328
0.21000000	10017.94136162	10397.85678513	10825.80187363	10843.87049243	12892.56688852	13991.78101382	14706.03504839	198.88227648	-77.28982705	147.74981240
0.22000000	10017.29247475	10397.81989833	10825.99852710	10843.24387820	12892.67934510	13994.22508491	14705.30840312	198.87914676	-77.28773582	147.75724022
0.23000000	10016.76797971	10397.80212125	10826.20071206	10842.49441801	12892.18988949	13996.77929767	14704.69435478	198.87622812	-77.28790622	147.77674766
0.24000000	10016.45406213	10397.81310401	10826.41583461	10841.68995603	12891.15403895	13999.36469761	14704.23543633	198.87447040	-77.29077586	147.80938566
0.25000000	10016.43690766	10397.86249678	10826.65130083	10840.89833642	12889.62731072	14001.90233027	14703.97418076	198.87482345	-77.29678235	147.85620513
0.26000000	10016.80270195	10397.95994970	10826.91451680	10840.18740335	12887.66522206	14004.31324117	14703.95312104	198.87823709	-77.30636328	147.91825701
0.27000000	10017.62614877	10398.11382419	10827.21209170	10839.61939457	12885.31967978	14006.52121504	14704.20892954	198.88555936	-77.31986084	147.99635037
0.28000000	10018.86341748	10398.31917746	10827.54240777	10839.19866963	12882.60531807	14008.47831518	14704.71777586	198.89658724	-77.33663205	148.08879766
0.29000000	10020.40074850	10398.56321795	10827.89899379	10838.89544298	12879.51478224	14010.15328771	14705.42013624	198.91049766	-77.35545273	148.19243844
0.30000000	10022.12347843	10398.83305264	10828.27531581	10838.67948776	12876.04043341	14011.51509439	14706.25602556	198.92645954	-77.37509120	148.30409322
0.31000000	10023.91694388	10399.11578853	10828.66483988	10838.52057712	12872.17463267	14012.53269696	14707.16545872	198.94364178	-77.39431578	148.42058254
